solid 
 facet normal -8.359719e-01  4.125856e-01 -3.618343e-01
   outer loop
     vertex  5.185788e-01  3.427433e+00  5.036285e+00
     vertex -1.300757e+00  1.343737e+00  6.863670e+00
     vertex -1.300757e+00  2.134959e+00  7.765871e+00
   endloop
 endfacet
 facet normal -8.359719e-01  4.125856e-01 -3.618343e-01
   outer loop
     vertex  5.185788e-01  3.427433e+00  5.036285e+00
     vertex -1.300757e+00  2.134959e+00  7.765871e+00
     vertex  5.185788e-01  4.218656e+00  5.938486e+00
   endloop
 endfacet
 facet normal  0.000000e+00  7.518340e-01 -6.593524e-01
   outer loop
     vertex  1.262719e+00  3.427433e+00  5.036285e+00
     vertex  5.185788e-01  3.427433e+00  5.036285e+00
     vertex  5.185788e-01  4.218656e+00  5.938486e+00
   endloop
 endfacet
 facet normal  0.000000e+00  7.518340e-01 -6.593524e-01
   outer loop
     vertex  1.262719e+00  3.427433e+00  5.036285e+00
     vertex  5.185788e-01  4.218656e+00  5.938486e+00
     vertex  1.262719e+00  4.218656e+00  5.938486e+00
   endloop
 endfacet
 facet normal  1.000000e+00  0.000000e+00  0.000000e+00
   outer loop
     vertex  1.262719e+00  1.284265e+00  6.915826e+00
     vertex  1.262719e+00  3.427433e+00  5.036285e+00
     vertex  1.262719e+00  4.218656e+00  5.938486e+00
   endloop
 endfacet
 facet normal  1.000000e+00 -0.000000e+00  0.000000e+00
   outer loop
     vertex  1.262719e+00  1.284265e+00  6.915826e+00
     vertex  1.262719e+00  4.218656e+00  5.938486e+00
     vertex  1.262719e+00  2.075488e+00  7.818027e+00
   endloop
 endfacet
 facet normal  0.000000e+00  7.518340e-01 -6.593524e-01
   outer loop
     vertex  1.886743e+00  1.284265e+00  6.915826e+00
     vertex  1.262719e+00  1.284265e+00  6.915826e+00
     vertex  1.262719e+00  2.075488e+00  7.818027e+00
   endloop
 endfacet
 facet normal  0.000000e+00  7.518340e-01 -6.593524e-01
   outer loop
     vertex  1.886743e+00  1.284265e+00  6.915826e+00
     vertex  1.262719e+00  2.075488e+00  7.818027e+00
     vertex  1.886743e+00  2.075488e+00  7.818027e+00
   endloop
 endfacet
 facet normal  1.000000e+00 -0.000000e+00  0.000000e+00
   outer loop
     vertex  1.886743e+00  9.142220e-01  7.240351e+00
     vertex  1.886743e+00  1.284265e+00  6.915826e+00
     vertex  1.886743e+00  2.075488e+00  7.818027e+00
   endloop
 endfacet
 facet normal  1.000000e+00  0.000000e+00  0.000000e+00
   outer loop
     vertex  1.886743e+00  9.142220e-01  7.240351e+00
     vertex  1.886743e+00  2.075488e+00  7.818027e+00
     vertex  1.886743e+00  1.705445e+00  8.142552e+00
   endloop
 endfacet
 facet normal  0.000000e+00 -7.518340e-01  6.593524e-01
   outer loop
     vertex  1.262719e+00  9.142220e-01  7.240351e+00
     vertex  1.886743e+00  9.142220e-01  7.240351e+00
     vertex  1.886743e+00  1.705445e+00  8.142552e+00
   endloop
 endfacet
 facet normal  0.000000e+00 -7.518340e-01  6.593524e-01
   outer loop
     vertex  1.262719e+00  9.142220e-01  7.240351e+00
     vertex  1.886743e+00  1.705445e+00  8.142552e+00
     vertex  1.262719e+00  1.705445e+00  8.142552e+00
   endloop
 endfacet
 facet normal  1.000000e+00 -0.000000e+00  0.000000e+00
   outer loop
     vertex  1.262719e+00  1.388932e-01  7.920308e+00
     vertex  1.262719e+00  9.142220e-01  7.240351e+00
     vertex  1.262719e+00  1.705445e+00  8.142552e+00
   endloop
 endfacet
 facet normal  1.000000e+00  0.000000e+00  0.000000e+00
   outer loop
     vertex  1.262719e+00  1.388932e-01  7.920308e+00
     vertex  1.262719e+00  1.705445e+00  8.142552e+00
     vertex  1.262719e+00  9.301161e-01  8.822509e+00
   endloop
 endfacet
 facet normal  0.000000e+00 -7.518340e-01  6.593524e-01
   outer loop
     vertex  6.738522e-01  1.388932e-01  7.920308e+00
     vertex  1.262719e+00  1.388932e-01  7.920308e+00
     vertex  1.262719e+00  9.301161e-01  8.822509e+00
   endloop
 endfacet
 facet normal  0.000000e+00 -7.518340e-01  6.593524e-01
   outer loop
     vertex  6.738522e-01  1.388932e-01  7.920308e+00
     vertex  1.262719e+00  9.301161e-01  8.822509e+00
     vertex  6.738522e-01  9.301161e-01  8.822509e+00
   endloop
 endfacet
 facet normal -1.000000e+00  0.000000e+00  0.000000e+00
   outer loop
     vertex  6.738522e-01  1.388932e-01  7.920308e+00
     vertex  6.738522e-01  9.301161e-01  8.822509e+00
     vertex  6.738522e-01  1.705445e+00  8.142552e+00
   endloop
 endfacet
 facet normal -1.000000e+00  0.000000e+00  0.000000e+00
   outer loop
     vertex  6.738522e-01  9.142220e-01  7.240351e+00
     vertex  6.738522e-01  1.388932e-01  7.920308e+00
     vertex  6.738522e-01  1.705445e+00  8.142552e+00
   endloop
 endfacet
 facet normal  0.000000e+00 -7.518340e-01  6.593524e-01
   outer loop
     vertex -1.300757e+00  9.142220e-01  7.240351e+00
     vertex  6.738522e-01  9.142220e-01  7.240351e+00
     vertex  6.738522e-01  1.705445e+00  8.142552e+00
   endloop
 endfacet
 facet normal  0.000000e+00 -7.518340e-01  6.593524e-01
   outer loop
     vertex -1.300757e+00  9.142220e-01  7.240351e+00
     vertex  6.738522e-01  1.705445e+00  8.142552e+00
     vertex -1.300757e+00  1.705445e+00  8.142552e+00
   endloop
 endfacet
 facet normal -1.000000e+00  0.000000e+00  0.000000e+00
   outer loop
     vertex -1.300757e+00  1.343737e+00  6.863670e+00
     vertex -1.300757e+00  9.142220e-01  7.240351e+00
     vertex -1.300757e+00  1.705445e+00  8.142552e+00
   endloop
 endfacet
 facet normal -1.000000e+00  0.000000e+00  0.000000e+00
   outer loop
     vertex -1.300757e+00  1.343737e+00  6.863670e+00
     vertex -1.300757e+00  1.705445e+00  8.142552e+00
     vertex -1.300757e+00  2.134959e+00  7.765871e+00
   endloop
 endfacet
 facet normal -1.000000e+00  0.000000e+00  0.000000e+00
   outer loop
     vertex  6.738522e-01  3.830991e+00  6.278464e+00
     vertex  6.738522e-01  1.284265e+00  6.915826e+00
     vertex  6.738522e-01  2.075488e+00  7.818027e+00
   endloop
 endfacet
 facet normal -1.000000e+00  0.000000e+00  0.000000e+00
   outer loop
     vertex  6.738522e-01  3.039768e+00  5.376264e+00
     vertex  6.738522e-01  1.284265e+00  6.915826e+00
     vertex  6.738522e-01  3.830991e+00  6.278464e+00
   endloop
 endfacet
 facet normal  8.423098e-01 -4.052338e-01  3.553868e-01
   outer loop
     vertex -8.202884e-01  1.284265e+00  6.915826e+00
     vertex  6.738522e-01  3.039768e+00  5.376264e+00
     vertex  6.738522e-01  3.830991e+00  6.278464e+00
   endloop
 endfacet
 facet normal  8.423098e-01 -4.052338e-01  3.553868e-01
   outer loop
     vertex -8.202884e-01  1.284265e+00  6.915826e+00
     vertex  6.738522e-01  3.830991e+00  6.278464e+00
     vertex -8.202884e-01  2.075488e+00  7.818027e+00
   endloop
 endfacet
 facet normal  0.000000e+00  7.518340e-01 -6.593524e-01
   outer loop
     vertex  6.738522e-01  1.284265e+00  6.915826e+00
     vertex -8.202884e-01  1.284265e+00  6.915826e+00
     vertex -8.202884e-01  2.075488e+00  7.818027e+00
   endloop
 endfacet
 facet normal  0.000000e+00  7.518340e-01 -6.593524e-01
   outer loop
     vertex  6.738522e-01  1.284265e+00  6.915826e+00
     vertex -8.202884e-01  2.075488e+00  7.818027e+00
     vertex  6.738522e-01  2.075488e+00  7.818027e+00
   endloop
 endfacet
 facet normal  1.440934e-15 -6.593524e-01 -7.518340e-01
   outer loop
     vertex -8.202884e-01  1.284265e+00  6.915826e+00
     vertex -1.300757e+00  9.142220e-01  7.240351e+00
     vertex -1.300757e+00  1.343737e+00  6.863670e+00
   endloop
 endfacet
 facet normal -0.000000e+00 -6.593524e-01 -7.518340e-01
   outer loop
     vertex  6.738522e-01  9.142220e-01  7.240351e+00
     vertex -1.300757e+00  9.142220e-01  7.240351e+00
     vertex -8.202884e-01  1.284265e+00  6.915826e+00
   endloop
 endfacet
 facet normal -0.000000e+00 -6.593524e-01 -7.518340e-01
   outer loop
     vertex  6.738522e-01  1.284265e+00  6.915826e+00
     vertex  6.738522e-01  9.142220e-01  7.240351e+00
     vertex -8.202884e-01  1.284265e+00  6.915826e+00
   endloop
 endfacet
 facet normal -0.000000e+00 -6.593524e-01 -7.518340e-01
   outer loop
     vertex  1.262719e+00  9.142220e-01  7.240351e+00
     vertex  6.738522e-01  1.388932e-01  7.920308e+00
     vertex  6.738522e-01  9.142220e-01  7.240351e+00
   endloop
 endfacet
 facet normal  0.000000e+00 -6.593524e-01 -7.518340e-01
   outer loop
     vertex  1.262719e+00  9.142220e-01  7.240351e+00
     vertex  1.262719e+00  1.388932e-01  7.920308e+00
     vertex  6.738522e-01  1.388932e-01  7.920308e+00
   endloop
 endfacet
 facet normal -0.000000e+00 -6.593524e-01 -7.518340e-01
   outer loop
     vertex  1.262719e+00  9.142220e-01  7.240351e+00
     vertex  6.738522e-01  9.142220e-01  7.240351e+00
     vertex  6.738522e-01  1.284265e+00  6.915826e+00
   endloop
 endfacet
 facet normal -0.000000e+00 -6.593524e-01 -7.518340e-01
   outer loop
     vertex  1.262719e+00  1.284265e+00  6.915826e+00
     vertex  1.262719e+00  9.142220e-01  7.240351e+00
     vertex  6.738522e-01  1.284265e+00  6.915826e+00
   endloop
 endfacet
 facet normal  0.000000e+00 -6.593524e-01 -7.518340e-01
   outer loop
     vertex  1.886743e+00  1.284265e+00  6.915826e+00
     vertex  1.886743e+00  9.142220e-01  7.240351e+00
     vertex  1.262719e+00  9.142220e-01  7.240351e+00
   endloop
 endfacet
 facet normal -0.000000e+00 -6.593524e-01 -7.518340e-01
   outer loop
     vertex  1.886743e+00  1.284265e+00  6.915826e+00
     vertex  1.262719e+00  9.142220e-01  7.240351e+00
     vertex  1.262719e+00  1.284265e+00  6.915826e+00
   endloop
 endfacet
 facet normal  1.432471e-15 -6.593524e-01 -7.518340e-01
   outer loop
     vertex  6.738522e-01  3.039768e+00  5.376264e+00
     vertex -8.202884e-01  1.284265e+00  6.915826e+00
     vertex -1.300757e+00  1.343737e+00  6.863670e+00
   endloop
 endfacet
 facet normal  0.000000e+00 -6.593524e-01 -7.518340e-01
   outer loop
     vertex  6.738522e-01  3.039768e+00  5.376264e+00
     vertex  1.262719e+00  1.284265e+00  6.915826e+00
     vertex  6.738522e-01  1.284265e+00  6.915826e+00
   endloop
 endfacet
 facet normal  2.109405e-15 -6.593524e-01 -7.518340e-01
   outer loop
     vertex  5.185788e-01  3.427433e+00  5.036285e+00
     vertex  6.738522e-01  3.039768e+00  5.376264e+00
     vertex -1.300757e+00  1.343737e+00  6.863670e+00
   endloop
 endfacet
 facet normal -0.000000e+00 -6.593524e-01 -7.518340e-01
   outer loop
     vertex  1.262719e+00  3.427433e+00  5.036285e+00
     vertex  6.738522e-01  3.039768e+00  5.376264e+00
     vertex  5.185788e-01  3.427433e+00  5.036285e+00
   endloop
 endfacet
 facet normal -1.587340e-15 -6.593524e-01 -7.518340e-01
   outer loop
     vertex  1.262719e+00  1.284265e+00  6.915826e+00
     vertex  6.738522e-01  3.039768e+00  5.376264e+00
     vertex  1.262719e+00  3.427433e+00  5.036285e+00
   endloop
 endfacet
 facet normal -1.440934e-15  6.593524e-01  7.518340e-01
   outer loop
     vertex -8.202884e-01  2.075488e+00  7.818027e+00
     vertex -1.300757e+00  2.134959e+00  7.765871e+00
     vertex -1.300757e+00  1.705445e+00  8.142552e+00
   endloop
 endfacet
 facet normal  0.000000e+00  6.593524e-01  7.518340e-01
   outer loop
     vertex  6.738522e-01  1.705445e+00  8.142552e+00
     vertex -8.202884e-01  2.075488e+00  7.818027e+00
     vertex -1.300757e+00  1.705445e+00  8.142552e+00
   endloop
 endfacet
 facet normal  0.000000e+00  6.593524e-01  7.518340e-01
   outer loop
     vertex  6.738522e-01  2.075488e+00  7.818027e+00
     vertex -8.202884e-01  2.075488e+00  7.818027e+00
     vertex  6.738522e-01  1.705445e+00  8.142552e+00
   endloop
 endfacet
 facet normal  0.000000e+00  6.593524e-01  7.518340e-01
   outer loop
     vertex  1.262719e+00  1.705445e+00  8.142552e+00
     vertex  6.738522e-01  1.705445e+00  8.142552e+00
     vertex  6.738522e-01  9.301161e-01  8.822509e+00
   endloop
 endfacet
 facet normal  0.000000e+00  6.593524e-01  7.518340e-01
   outer loop
     vertex  1.262719e+00  1.705445e+00  8.142552e+00
     vertex  6.738522e-01  9.301161e-01  8.822509e+00
     vertex  1.262719e+00  9.301161e-01  8.822509e+00
   endloop
 endfacet
 facet normal  0.000000e+00  6.593524e-01  7.518340e-01
   outer loop
     vertex  1.262719e+00  1.705445e+00  8.142552e+00
     vertex  6.738522e-01  2.075488e+00  7.818027e+00
     vertex  6.738522e-01  1.705445e+00  8.142552e+00
   endloop
 endfacet
 facet normal  0.000000e+00  6.593524e-01  7.518340e-01
   outer loop
     vertex  1.262719e+00  2.075488e+00  7.818027e+00
     vertex  6.738522e-01  2.075488e+00  7.818027e+00
     vertex  1.262719e+00  1.705445e+00  8.142552e+00
   endloop
 endfacet
 facet normal  0.000000e+00  6.593524e-01  7.518340e-01
   outer loop
     vertex  1.886743e+00  2.075488e+00  7.818027e+00
     vertex  1.262719e+00  1.705445e+00  8.142552e+00
     vertex  1.886743e+00  1.705445e+00  8.142552e+00
   endloop
 endfacet
 facet normal  0.000000e+00  6.593524e-01  7.518340e-01
   outer loop
     vertex  1.886743e+00  2.075488e+00  7.818027e+00
     vertex  1.262719e+00  2.075488e+00  7.818027e+00
     vertex  1.262719e+00  1.705445e+00  8.142552e+00
   endloop
 endfacet
 facet normal -1.432471e-15  6.593524e-01  7.518340e-01
   outer loop
     vertex  6.738522e-01  3.830991e+00  6.278464e+00
     vertex -1.300757e+00  2.134959e+00  7.765871e+00
     vertex -8.202884e-01  2.075488e+00  7.818027e+00
   endloop
 endfacet
 facet normal  0.000000e+00  6.593524e-01  7.518340e-01
   outer loop
     vertex  6.738522e-01  3.830991e+00  6.278464e+00
     vertex  6.738522e-01  2.075488e+00  7.818027e+00
     vertex  1.262719e+00  2.075488e+00  7.818027e+00
   endloop
 endfacet
 facet normal -8.113097e-16  6.593524e-01  7.518340e-01
   outer loop
     vertex  5.185788e-01  4.218656e+00  5.938486e+00
     vertex -1.300757e+00  2.134959e+00  7.765871e+00
     vertex  6.738522e-01  3.830991e+00  6.278464e+00
   endloop
 endfacet
 facet normal  0.000000e+00  6.593524e-01  7.518340e-01
   outer loop
     vertex  1.262719e+00  4.218656e+00  5.938486e+00
     vertex  5.185788e-01  4.218656e+00  5.938486e+00
     vertex  6.738522e-01  3.830991e+00  6.278464e+00
   endloop
 endfacet
 facet normal  5.291134e-16  6.593524e-01  7.518340e-01
   outer loop
     vertex  1.262719e+00  2.075488e+00  7.818027e+00
     vertex  1.262719e+00  4.218656e+00  5.938486e+00
     vertex  6.738522e-01  3.830991e+00  6.278464e+00
   endloop
 endfacet
endsolid
